<?xml version="1.0" encoding="utf-8"?>
<svg viewBox="0 0 500 430" xmlns="http://www.w3.org/2000/svg">
  <g style="" transform="matrix(1.184711, 0, 0, 1.105325, -42.575909, -50.890228)">
    <path style="stroke: rgb(0, 0, 0);" d="M 194.171 346.901 C 187.251 330.147 193.078 317.036 193.078 317.036 C 193.078 317.036 186.523 289.72 170.255 280.939 C 99.963 214.653 137.479 141.616 137.479 141.165 C 137.479 140.714 161.181 87.44 217.389 74.122 C 273.597 60.804 307.683 89.359 307.683 89.359 C 307.683 89.359 356.792 127.182 361.532 171.878 C 366.272 216.574 345.781 255.875 335.172 263.325 C 332.237 268.215 311.921 291.466 311.921 291.466 C 296.12 302.301 299.506 329.389 299.506 329.389 C 299.957 330.342 295.894 344.338 295.894 344.338 C 295.894 344.338 304.233 351.426 295.724 359.349 C 304.233 367.418 295.577 374.46 295.577 374.46 C 304.38 379.725 294.844 389.995 294.844 389.995 C 294.844 389.995 294.828 403.591 273.408 408.285 C 261.964 419.876 257.269 418.555 257.269 418.555 C 257.269 418.555 258.883 426.038 249.934 425.891 C 240.985 425.744 231.888 429.852 232.181 417.822 C 223.525 414.594 216.336 407.258 216.336 407.258 C 211.642 408.579 202.839 400.95 202.839 400.95 C 183.62 396.842 194.77 386.279 194.77 386.279 C 183.473 378.079 195.797 370.45 195.797 370.45 C 182.739 362.299 197.264 355.844 197.264 355.844 L 194.171 346.901 Z"/>
    <path style="stroke: rgb(0, 0, 0); fill: rgb(255, 166, 94);" d="M 231.103 355.095 C 231.103 355.095 208.159 361.484 196.359 335.185 C 197.37 304.503 193.661 306.188 193.661 306.188 C 193.661 306.188 183.883 281.912 171.071 274.195 C 114.427 215.865 138.599 155.15 138.599 155.15 C 138.599 155.15 158.293 82.118 242.813 76.374 C 327.333 70.63 352.77 160.894 352.77 160.894 C 352.77 160.894 378.208 212.59 312.562 282.34 C 295.636 295.137 294.287 311.995 294.287 311.995 C 294.287 311.995 295.372 354.749 265.701 355.761 C 236.03 356.773 230.092 355.769 231.103 355.095 Z"/>
    <path style="stroke: rgb(0, 0, 0); fill: rgb(171, 171, 171);" d="M 292.798 351.441 C 280.888 362.266 226.352 367.261 197.294 361.782 C 197.294 361.782 192.511 364.932 197.294 366.215 C 202.077 367.498 275.219 372.631 293.301 353.733 C 293.549 351.675 293.381 350.911 292.798 351.441 Z"/>
    <path style="stroke: rgb(0, 0, 0); fill: rgb(171, 171, 171);" d="M 292.751 366.82 C 280.841 377.645 226.305 382.64 197.247 377.161 C 197.247 377.161 192.464 380.311 197.247 381.594 C 202.03 382.877 275.172 388.01 293.254 369.112 C 293.502 367.054 293.334 366.29 292.751 366.82 Z"/>
    <path style="stroke: rgb(0, 0, 0); fill: rgb(171, 171, 171);" d="M 293.056 381.273 C 281.146 392.098 226.61 397.093 197.552 391.614 C 197.552 391.614 192.769 394.764 197.552 396.047 C 202.335 397.33 275.477 402.463 293.559 383.565 C 293.807 381.507 293.639 380.743 293.056 381.273 Z"/>
    <path style="stroke: rgb(0, 0, 0); fill: rgb(171, 171, 171);" d="M 257.213 405.196 C 257.213 405.196 276.368 405.098 286.486 395.078 C 273.52 402.74 223.619 403.329 223.619 403.329 C 223.619 403.329 248.667 407.062 257.213 405.196 Z"/>
    <path style="stroke: rgb(0, 0, 0); fill: rgb(171, 171, 171);" d="M 231.084 410.5 C 231.084 410.5 243.265 420.913 260.652 411.09 L 231.084 410.5 Z"/>
  </g>
</svg>